<?xml version="1.0" encoding="UTF-8" standalone="no"?>
<!-- Created with Inkscape (http://www.inkscape.org/) -->

<svg
   width="114.9477mm"
   height="34.660091mm"
   viewBox="0 0 114.9477 34.660091"
   version="1.1"
   id="svg5"
   xml:space="preserve"
   xmlns="http://www.w3.org/2000/svg"
   xmlns:svg="http://www.w3.org/2000/svg"><defs
     id="defs2" /><g
     id="just_layer"
     transform="translate(-16.526149,-35.169952)"><rect
       style="fill:#000000;fill-opacity:1;stroke:#000000;stroke-width:2.71573;stroke-linecap:round;stroke-opacity:1"
       id="background"
       width="112.23197"
       height="31.944363"
       x="17.884014"
       y="36.527817"
       ry="3.9893625" /><g
       aria-label="j u s t"
       id="just"
       style="font-size:25.4px;line-height:0;font-family:monospace;-inkscape-font-specification:'monospace, Normal';fill:#ffffff;stroke:#ffffff;stroke-width:0.2;stroke-linecap:round"><path
         d="M 28.012112,59.755371 V 47.390235 h -3.931543 v -1.773536 h 6.213574 v 14.138672 q 0,2.418457 -1.116211,3.720703 -1.103809,1.314649 -3.150195,1.314649 h -3.150196 v -1.934766 h 2.902149 q 1.116211,0 1.674316,-0.781348 0.558106,-0.768945 0.558106,-2.319238 z m 0,-19.546093 h 2.282031 v 2.889746 h -2.282031 z"
         id="path236" /><path
         d="m 53.573341,54.248731 v -8.607227 h 2.282032 v 8.607227 q 0,1.872753 0.657324,2.75332 0.669726,0.880566 2.058789,0.880566 1.612304,0 2.468066,-1.128613 0.855762,-1.141016 0.855762,-3.261816 v -7.850684 h 2.294433 v 13.86582 h -2.294433 v -2.083593 q -0.607715,1.203027 -1.661914,1.823144 -1.041797,0.620117 -2.443262,0.620117 -2.133203,0 -3.175,-1.389062 -1.041797,-1.401465 -1.041797,-4.229199 z"
         id="path238" /><path
         d="m 93.806544,46.100391 v 2.232422 q -0.979786,-0.570508 -1.971973,-0.855762 -0.992188,-0.285254 -2.021582,-0.285254 -1.550293,0 -2.319238,0.508496 -0.756543,0.496094 -0.756543,1.525488 0,0.930176 0.570508,1.389063 0.570507,0.458887 2.840136,0.892969 l 0.917774,0.173632 q 1.699121,0.322461 2.567285,1.289844 0.880566,0.967383 0.880566,2.517676 0,2.058789 -1.463476,3.224609 -1.463477,1.153418 -4.067969,1.153418 -1.029395,0 -2.158008,-0.223242 -1.128613,-0.21084 -2.443262,-0.644922 v -2.356445 q 1.277442,0.657324 2.443262,0.992187 1.16582,0.322461 2.207617,0.322461 1.513086,0 2.344043,-0.607715 0.830957,-0.620117 0.830957,-1.723925 0,-1.5875 -3.038574,-2.195215 l -0.09922,-0.02481 -0.855761,-0.173633 q -1.971973,-0.384472 -2.877344,-1.289843 -0.905371,-0.917774 -0.905371,-2.492871 0,-1.996778 1.351855,-3.075782 1.351856,-1.091406 3.857129,-1.091406 1.116211,0 2.145606,0.21084 1.029394,0.198437 2.021582,0.607715 z"
         id="path240" /><path
         d="m 119.93828,41.672754 v 3.943945 h 5.18418 v 1.773536 h -5.18418 v 7.540624 q 0,1.537891 0.58291,2.145606 0.58291,0.607715 2.03398,0.607715 h 2.56729 v 1.823144 h -2.79053 q -2.56729,0 -3.62148,-1.029394 -1.0542,-1.029395 -1.0542,-3.547071 v -7.540624 h -3.7083 v -1.773536 h 3.7083 v -3.943945 z"
         id="path242" /></g></g></svg>
